# xmcd
#
# Track frame offsets:
#	187
#	17667
#	25107
#	30337
#	33817
#	43215
#	53035
#	56912
#	68125
#	81897
#	92585
#	96287
#	105230
#	107977
#	113237
#	121415
#	129295
#	139555
#
# Disc length: 2044 seconds
#
# Revision: 5
# Processed by: cddbd v1.5.2PL0 Copyright (c) Steve Scherf et al.
# Submitted via: EZCDAudioConverter 1.3.4.1
#
DISCID=e307fa12
DTITLE=Alan Silvestri - Soapdish
DYEAR=1991
DGENRE=
TTITLE0=Mambo Glamoroso
TTITLE1=You're Fired (Just Kidding)
TTITLE2=I Want Celeste To Burn
TTITLE3=On The Machine
TTITLE4=Mr. Barnes' Cha Cha Cha
TTITLE5=America's Sweetheart (Underbelly)
TTITLE6=In The Soup Kitchen
TTITLE7=Makeover Mambo
TTITLE8=El Sol Tambien Se Pone [Instrumental]
TTITLE9=Mambo Incognito
TTITLE10=Miss Moorehead's Tango
TTITLE11=Life Is Soap Is Life Is...
TTITLE12=Mambo Nervoso
TTITLE13=Lori Meets The Press
TTITLE14=Sunset's Showdown
TTITLE15=Brain Surgery
TTITLE16=She's A Boy
TTITLE17=El Sol Tambien Se Pone
EXTD=
EXTT0=
EXTT1=
EXTT2=
EXTT3=
EXTT4=
EXTT5=
EXTT6=
EXTT7=
EXTT8=
EXTT9=
EXTT10=
EXTT11=
EXTT12=
EXTT13=
EXTT14=
EXTT15=
EXTT16=
EXTT17=
PLAYORDER=
